<svg xmlns="http://www.w3.org/2000/svg"  viewBox="0 0 48 48" width="144px" height="144px" baseProfile="basic"><linearGradient id="elZJk8nWR2RSO3e3AvAUVa" x1="15.639" x2="43" y1="17.971" y2="17.971" gradientUnits="userSpaceOnUse"><stop offset="0" stop-color="#ffda1c"/><stop offset=".702" stop-color="#bd1949"/></linearGradient><path fill="url(#elZJk8nWR2RSO3e3AvAUVa)" d="M37.706,29.429l-3.734,2.514L15.639,4L43,19.6L37.706,29.429z"/><linearGradient id="elZJk8nWR2RSO3e3AvAUVb" x1="21.271" x2="14.314" y1="36.11" y2="6.891" gradientUnits="userSpaceOnUse"><stop offset="0" stop-color="#ffda1c"/><stop offset="1" stop-color="#bd1949"/></linearGradient><path fill="url(#elZJk8nWR2RSO3e3AvAUVb)" d="M34.028,31.943l-14.488,12l-11.201-4.4L3.993,12.057L15.639,4L34.028,31.943z"/><linearGradient id="elZJk8nWR2RSO3e3AvAUVc" x1="23.27" x2="35.087" y1="8.301" y2="43.02" gradientUnits="userSpaceOnUse"><stop offset="0" stop-color="#2b92f0"/><stop offset=".546" stop-color="#cc00ed"/><stop offset="1" stop-color="#2b92f0"/></linearGradient><path fill="url(#elZJk8nWR2RSO3e3AvAUVc)" d="M43,37.143L31.521,44l-7.356-3.943L21.1,12.286l7.579-7.657l3.455,8.571L43,37.143z"/><linearGradient id="elZJk8nWR2RSO3e3AvAUVd" x1="20.662" x2="12.758" y1="33.832" y2="4.855" gradientUnits="userSpaceOnUse"><stop offset="0" stop-color="#ffda1c"/><stop offset=".702" stop-color="#bd1949"/></linearGradient><path fill="url(#elZJk8nWR2RSO3e3AvAUVd)" d="M34.028,31.943l-14.488,12l-11.201-4.4L3.993,12.057L15.639,4L34.028,31.943z"/><linearGradient id="elZJk8nWR2RSO3e3AvAUVe" x1="24" x2="24" y1="36" y2="12" gradientUnits="userSpaceOnUse"><stop offset="0" stop-color="#252525"/><stop offset=".314" stop-color="#2b2b2b"/><stop offset=".753" stop-color="#3e3e3e"/><stop offset="1" stop-color="#4b4b4b"/></linearGradient><path fill="url(#elZJk8nWR2RSO3e3AvAUVe)" d="M34,36H14c-1.105,0-2-0.895-2-2V14c0-1.105,0.895-2,2-2h20	c1.105,0,2,0.895,2,2v20C36,35.105,35.105,36,34,36z"/><path fill="#fff" d="M23.988,32.558H14.99v-1.543h8.998V32.558z"/><path fill="#fff" d="M23.989,24h3.386c2.786,0,4.75-2.109,4.75-4.617c0-2.451-1.895-4.389-4.681-4.389	h-3.455V24z M27.444,16.753c1.616,0,2.675,1.12,2.675,2.77c0,1.591-1.114,2.711-2.675,2.711l-1.417,0.003v-5.484L27.444,16.753z"/><path fill="#fff" d="M14.962,23.986h2.006v-2.734h1.505l1.839,2.734h2.285l-2.173-3.19	c0.557-0.228,1.003-0.57,1.337-1.025c0.334-0.456,0.502-1.025,0.502-1.766v-0.057c0-0.854-0.223-1.538-0.724-2.051	c-0.613-0.57-1.449-0.911-2.563-0.911h-4.012V23.986z M16.968,19.315v-2.563h1.895c0.502,0,0.836,0.171,1.114,0.342	c0.279,0.228,0.39,0.513,0.39,0.968v0.057c0,0.342-0.111,0.684-0.39,0.911c-0.279,0.228-0.656,0.285-1.102,0.285H16.968z"/><path fill="none" d="M14,12c-1.105,0-2,0.895-2,2v20c0,1.105,0.895,2,2,2h20c1.105,0,2-0.895,2-2V15.623l-0.023-0.013	l0.01-1.588c0.004-0.57-0.227-1.086-0.601-1.459C35.026,12.216,34.539,12,34,12H14z"/><path d="M36.5,15.91V34c0,1.379-1.121,2.5-2.5,2.5H14c-1.378,0-2.5-1.121-2.5-2.5V14	c0-1.379,1.122-2.5,2.5-2.5h17.459L31.255,11H14c-1.654,0-3,1.346-3,3v20c0,1.654,1.346,3,3,3h20c1.654,0,3-1.346,3-3V16.198	L36.5,15.91z" opacity=".05"/><path d="M36,34c0,1.105-0.895,2-2,2H14c-1.105,0-2-0.895-2-2V14c0-1.105,0.895-2,2-2h20	c0.539,0,1.026,0.216,1.386,0.563c-0.37-0.369-0.879-0.598-1.443-0.598H31.65l-0.19-0.465H14c-1.378,0-2.5,1.121-2.5,2.5v20	c0,1.379,1.122,2.5,2.5,2.5h20c1.379,0,2.5-1.121,2.5-2.5V15.91L36,15.623V34z" opacity=".07"/><path fill="#fff" d="M35.987,14.022l-0.01,1.588L36,15.623V14c0-0.565-0.237-1.074-0.614-1.438	C35.76,12.935,35.99,13.452,35.987,14.022z"/></svg>